<svg xmlns="http://www.w3.org/2000/svg" viewBox="0 0 1024 1024">
  <path fill="#050504" fill-rule="evenodd" d="m457 56.635-4.5.421-8 1.535-8 1.535-8 2.484-8 2.484-10 4.925-10 4.925-10.598 7.971-10.598 7.971-7.161 7.668-7.161 7.668-5.741 7.654-5.741 7.654-1.615 2.475-1.616 2.475-6.884-2.204-6.885-2.204-7.401-1.137-7.4-1.136-6.6.679-6.599.678-4.5 1.059-4.5 1.058-7.34 3.34-7.341 3.34-6.376 4.551-6.377 4.55-4.463 5.478-4.462 5.479-3.112 5.438-3.112 5.439-2.437 6.975-2.437 6.976-1.147 7.331-1.146 7.33.614 9 .615 9 1.379 5.093 1.378 5.092-8.618 4.273-8.618 4.272-6.674 4.316-6.674 4.315-7.468 7.094-7.468 7.094-4.98 7.226-4.98 7.225-3.121 6.207-3.12 6.206-2.429 7.294-2.428 7.293-1.146 9.75-1.146 9.75 1.138 9.75 1.138 9.75 3.429 10.333L194 350.166v.57l-6.745 3.882-6.745 3.882-9.005 9.057-9.005 9.058-4.379 7.72-4.378 7.72-2.954 8.569-2.953 8.569-.536 5.653-.536 5.654-1.573 1.25-1.573 1.25h-5.237l-8.441 2.104-8.44 2.104-8.119 3.77-8.119 3.769-6.261 4.252-6.262 4.253-6.042 6.124-6.043 6.124-4.364 6.732-4.364 6.733-2.967 6.971-2.966 6.972-1.668 6.796-1.668 6.796v25l1.675 6.829 1.676 6.829 3.171 7.617 3.171 7.617 5.756 8.605 5.756 8.606 7.819 7.45 7.819 7.451 6 3.979 6 3.98 7.451 3.753 7.45 3.753 7.55 2.495 7.549 2.495 7.149 1.485 7.149 1.486 12.746 1.035L181.29 608h98.774l3.218-1.362 3.218-1.362 2-2.243 2-2.243v-10.954l-3.266-2.918-3.266-2.918h-115.52l-8.474-1.022-8.474-1.022-7-2.082-7-2.082-6.36-2.883-6.359-2.883-6.141-4.133-6.14-4.132-3.846-3.631-3.847-3.63-4.266-5.5-4.266-5.5-3.205-6.356-3.206-6.357-1.932-7.553L86 517.68l.017-8.09.018-8.09 1.403-6.622 1.404-6.622 3.204-6.378 3.203-6.378 4.859-6 4.858-6 3.512-2.789 3.513-2.789 7.254-3.903 7.255-3.904 7.5-2.027 7.5-2.028 10.932-.895 10.932-.894 3.318-3.621 3.318-3.621.015-9.264.015-9.265 1.507-6.397 1.508-6.397 3.717-7.103 3.717-7.103 7.51-7.554 7.511-7.553 7.243-3.747 7.242-3.747 6.758-1.432 6.757-1.432h16l6.832 1.447 6.832 1.448 8.76 4.035 8.759 4.035h9.247l3.474-3.05 3.474-3.05 1.182-3.7 1.183-3.7 3.604-7 3.604-7 8.081-8.128 8.08-8.127 8.573-4.149 8.572-4.15 6.871-1.455 6.872-1.456 6.162-.018 6.162-.017 7.338 1.429 7.338 1.429 4.376 1.571 4.375 1.571h7.945l5.62-6.082 5.62-6.081 8.149-5.422 8.148-5.422 7.5-3.465 7.5-3.465 9.883-2.603 9.884-2.603 13.566-.569 13.566-.57 10.365 1.733 10.365 1.733 8.569 3.021 8.569 3.022 5 2.516 5 2.516 7.256 5 7.256 4.999 5.949 6.359 5.948 6.359 4.169 6.14 4.17 6.139 4.338 9.157 4.338 9.158 2.5 9.345 2.501 9.345 1.776 1.963 1.777 1.962 1.77.948 1.77.947 11.241.98 11.241.981 9.5 2.491 9.5 2.492 10 4.844 10 4.844 8 5.972 8 5.971 8.163 8.647 8.164 8.648 4.738 7.602 4.738 7.602 3.766 9.173 3.766 9.173 1.563 7.612 1.562 7.612.655 7.046.655 7.046-1.192 9.842-1.192 9.842-1.984 7.41-1.984 7.411-5.615 10.977-5.615 10.977-8.594 8.695-8.594 8.694-8 4.497-8 4.497-5.5 2.151-5.5 2.15-5.997 1.53-5.997 1.53-9.003 1.125-9.003 1.124-134.312-.649-134.312-.649-2.864 2.864-2.865 2.865-.654 3.489-.655 3.489 1.498 3.584 1.497 3.583 2.691 1.764 2.692 1.763 134.672.446 134.672.445 10.12-1.176 10.12-1.177 9.35-2.501 9.35-2.5 8.601-3.794 8.602-3.794 8.398-5.477 8.399-5.476 6.679-6.585 6.679-6.584 4.681-6.349 4.681-6.349 4.53-9 4.531-9 2.284-6.704 2.285-6.704 1.767-8.296 1.767-8.296.058-14.5.058-14.5-.784-4.387-.784-4.388 96.784.72 96.784.719 9-1.115 9-1.116 5.879-1.479 5.879-1.479 5.9-2.383 5.9-2.383 5.713-3.354 5.714-3.355 8.227-8.224 8.228-8.225 5.041-10.322 5.042-10.322 1.599-7.453 1.599-7.454.022-11 .022-11-1.778-7-1.777-7-2.772-6.815-2.772-6.815-3.333-5.511-3.333-5.512-6.858-7.45-6.858-7.45-6.302-4.497-6.301-4.497-7.341-3.369-7.34-3.369-7.5-1.724-7.5-1.724-2.78-.64-2.779-.64-3.26-7.493-3.26-7.494-4.129-6.075-4.129-6.075-7.541-7.042-7.541-7.043-7.84-4.079-7.84-4.078-8.95-2.668-8.951-2.667-13-.503-13-.503-8.436 1.597-8.437 1.596-.248-.248-.248-.247-1.988-9.483-1.988-9.482-2.705-7.5-2.704-7.5-4.788-9.563-4.789-9.563-4.736-6.937-4.737-6.937-6.098-7.424-6.098-7.423-9.33-7.751-9.33-7.75-3.517-1.669-3.517-1.669-3.343.627-3.342.627-2.561 3.043-2.56 3.042v9.001l2.788 2.673 2.787 2.673 6.778 5.872 6.778 5.873 6.805 8.456 6.806 8.457 5.119 8.587 5.119 8.587 3.894 10.084 3.894 10.084 1.606 8 1.606 8 .9 8.257.9 8.258 1.688 2.576 1.688 2.576 3.601 1.505 3.602 1.505 3.071-.441 3.07-.44 10-2.703 10-2.703 11.5-.048 11.5-.048 6.5 1.688 6.5 1.688 6.997 3.665 6.997 3.665 5.651 5.648 5.651 5.648 2.817 4.806 2.816 4.806 2.597 9.046 2.598 9.046 3.105 2.095 3.106 2.094 10.332.63 10.333.63 4.797 1.491 4.796 1.492 6.204 3.279 6.203 3.279 7 7.015 7 7.015 4.222 8.055 4.221 8.056 1.629 6.934 1.629 6.935-.463 10-.464 10-2.188 6.5-2.189 6.5-4.503 6.674-4.503 6.675-4.196 3.409-4.195 3.41-4.5 2.578-4.5 2.578-7 2.338-7 2.338-106.722.276-106.723.276-3.149-6.276-3.149-6.276-5.497-8.5-5.497-8.5-4.251-5.007-4.251-5.006-7.699-7.494-7.7-7.493-8.681-6.252-8.681-6.253-10-4.948-10-4.948-9.5-3.118-9.5-3.117-10.073-1.664-10.073-1.664-2.816-8.018-2.817-8.018-3.489-7-3.489-7-6.121-8.958-6.122-8.958-8-7.845-8-7.844-8.746-6-8.746-6-7.092-3.505-7.092-3.504-10.162-3.363-10.162-3.363-9.5-1.533-9.5-1.532-10.25-.676-10.25-.677v-1.422l1.928-7.54 1.929-7.539 4.204-8.371 4.205-8.37 6.294-6.088 6.295-6.088 6.822-3.572 6.823-3.573 6-1.778 6-1.779 11 .046 11 .046 4.376 1.643 4.375 1.643 3.625-.004 3.624-.003 3.105-1.894 3.105-1.893 2.337-3.853 2.338-3.853 5.672-7 5.672-7 7.386-7.009 7.385-7.009 6.5-4.292 6.5-4.293 8.429-4.062 8.429-4.063 11.571-3.041 11.571-3.041 18-.095 18-.095 12.851 2.435 12.85 2.434 4.065-1.434 4.065-1.435 1.942-3.769 1.943-3.769-.633-3.369-.632-3.369-2.482-2.482-2.482-2.482-5.743-1.605-5.744-1.605-8-1.618-8-1.617-18.5-.532-18.5-.532-11 1.711-11 1.712-10.26 3.311-10.259 3.312-7.382-11.149-7.383-11.148-6.624-7.734-6.624-7.734-7.734-6.61-7.734-6.61-8.131-5.419-8.13-5.419-11.37-5.39-11.369-5.391-8.642-2.624-8.641-2.624-7.525-1.44-7.524-1.439-11.834-.426-11.834-.426zm.507 25.468-8.993.894-8.924 2.567-8.925 2.568-6.47 2.933-6.469 2.934-8.613 5.722-8.613 5.721-10.037 10.029-10.038 10.029-7.845 11.781-7.844 11.782-2.503 1.968L359.73 153l-3.615-.022-3.615-.022-4.5-2.081-4.5-2.081-5.5-1.955-5.5-1.955-8.5-.569-8.5-.569-6.475 1.664-6.476 1.664-4.524 2.648-4.525 2.648-5.125 4.842-5.125 4.842-3.03 5.723-3.029 5.723-1.596 5.432-1.595 5.431.015 7.569.015 7.568 1.418 6 1.419 6 2.044 4.5 2.045 4.5.022 3.8.022 3.799-1.449 2.802-1.449 2.802-2.391 1.567-2.392 1.567-4.409 1.187-4.41 1.187-7.196 3.414-7.196 3.415-7.429 4.968-7.428 4.969-6.063 6.481-6.062 6.481-4.16 7.002-4.161 7.003-2.515 7.778-2.515 7.778.013 11 .014 11 2.525 8.5 2.526 8.5 1.102 2.891 1.103 2.891 8.221-.569 8.221-.569 8.477 1.032 8.478 1.032 8.863 2.896L268.18 350h.62l5.178-8.156 5.178-8.156 5.672-5.947 5.672-5.947 6-4.51 5.999-4.51 7.001-3.529 7-3.528 6.775-2.308 6.775-2.307 8.13-1.189 8.13-1.188 9.095.555 9.095.556 7.24 1.66 7.239 1.66 5.761-4.958 5.76-4.957 6.712-4.552 6.713-4.551 6.787-3.247 6.788-3.248 9.456-3.216 9.457-3.216 1.272-7.856 1.272-7.855 2.613-8 2.612-8 3.908-7.324 3.907-7.324 4.615-5.998 4.615-5.998 6.579-5.426 6.578-5.426 8.558-4.398 8.558-4.398 8-2.348 8-2.348 16.636-.006 16.636-.006 4.864-6.485 4.864-6.485 6.281-6.67 6.282-6.67 7.964-6.273 7.963-6.272-3.136-5.573-3.137-5.572-5.292-7-5.291-7-7.317-7.163-7.317-7.163-8-5.697-8-5.698-8.5-4.26-8.5-4.261-7.984-2.669-7.985-2.67-8.515-1.393-8.516-1.394-7.5-.461-7.5-.461zM668 665.296l-3.5 1.314-14.5 9.862-14.5 9.863-10 6.945-10 6.946-2.176 2.637-2.176 2.637-1.158 4.084-1.157 4.083 1.073 3.917 1.073 3.916 1.76 2.746 1.761 2.747 17.5 23.432 17.5 23.432 3.636 2.072 3.636 2.071 4.864-.022 4.864-.022 4-1.888 4-1.888 21.961-15.34 21.961-15.34 2.932-4.184 2.932-4.183v-10.959l-1.893-3.061-1.893-3.061-16.903-24.362-16.903-24.361-3.147-2.156-3.146-2.156-4.451-.518-4.45-.517zm-405.769 4.956-3.27 1.048-3.243 3.6-3.244 3.6-11.671 22.044-11.67 22.043-1.147 4.553-1.146 4.552 1.058 3.93 1.058 3.929 3.772 3.618 3.772 3.617 26 13.431 26 13.43 3.399 1.177 3.399 1.176h6.766l3.218-1.347 3.218-1.347 3.5-3.924 3.5-3.923 11.367-22.48 11.367-22.479.493-4.574.493-4.574-2.044-4.007-2.044-4.007-3.316-2.483-3.316-2.482-25.468-13.436-25.467-13.437-3.533-1.173-3.532-1.173-2.5.025-2.5.025zM461.5 681.381l-15 5.278-10.348 3.818-10.348 3.817-2.938 2.472-2.938 2.472-1.464 2.831-1.464 2.832.08 5.799.08 5.8 10.17 25.904 10.17 25.904 3.846 3.096 3.846 3.096 6.654-.083 6.654-.082 23.829-8.609 23.83-8.61 3.28-2.501 3.28-2.502 1.64-3.458 1.641-3.457v-8.31l-9.033-24.194-9.033-24.194-2.237-3.98-2.238-3.979-3.979-2.254-3.98-2.254-4.5.035-4.5.035zm352.53 2.202-3.47 1.506-1.887 1.705-1.886 1.706-1.893 3.71-1.894 3.71v52.16l2.02 3.959 2.02 3.959 4.154 2.751 4.155 2.751 25.695.324 25.696.323 4.32-1.163 4.319-1.163 3.221-3.221 3.221-3.221 1.151-4.276 1.151-4.275-.311-25.24-.312-25.24-2.684-4.053-2.684-4.053-4.382-2.121-4.381-2.121-25.935.039-25.934.039zm-158.093 16.549L639.5 711.29l-2.219 1.605-2.218 1.605-.032 1.093-.031 1.093 13.108 17.907 13.108 17.907.77.829.771.828 14.872-10.232 14.871-10.233 3.5-2.556 3.5-2.555.343-.217.343-.217-13.223-18.823-13.224-18.824-.683-.763-.683-.764zm-387.482-2.435-2.603 4.803-7.01 13-7.01 13 .834 1.326.834 1.327 21.175 10.913 21.174 10.913 4.466-8.239 4.466-8.24 5.087-10.187 5.087-10.186-12.728-6.692-12.727-6.691-9.221-4.924-9.221-4.925zm202.045 3.986-7 2.497-11 3.988-11 3.988-.788.76-.789.761 7.234 18.911 7.233 18.912.193.304.192.304 15.803-5.62 15.802-5.62 3.266-1.364 3.265-1.365-3.03-8.319-3.03-8.32-4.054-10.5-4.054-10.5-.621-.658-.622-.657zM825 721.941v19.103l18.75-.272 18.75-.272-.07-17.737-.07-17.736-.761-.764-.762-.763-17.918-.331-17.919-.331zM364.5 837.117l-4 2.141-20.5 11.497-20.5 11.497-1.852 1.621-1.853 1.622-1.397 2.703-1.398 2.703.018 4.799.018 4.8 2.821 5 2.82 5 8.998 14.5 8.998 14.5 3.607 5.613 3.607 5.614 3.022 2.543 3.022 2.542 3.922.663 3.922.663 4.362-1.137 4.363-1.136 8.5-4.781 8.5-4.78 14.862-8.371 14.863-8.37 2.387-3.514 2.388-3.513-.01-6.018-.009-6.018-14.962-24-14.963-24-3.565-2.955-3.565-2.955-6.213-.307-6.213-.306zm-207.332 10.005-4.331 2.168-2.669 4.029-2.668 4.029-.312 26.568-.313 26.567 1.163 4.154 1.163 4.154 3.65 3.545 3.649 3.545 2.815 1.059 2.815 1.06h53.934l3.234-1.351 3.233-1.351 3.185-3.628 3.185-3.627.605-3.272.605-3.271-.306-27.58-.305-27.58-2.694-3.529-2.693-3.53-3.807-1.89-3.806-1.891-27.5-.273-27.5-.273zm365.253-.226-4.078 1.853-2.172 2.761-2.172 2.761-1.071 3.614-1.072 3.615.322 27.076.322 27.076 2.684 4.053 2.684 4.053 4.382 2.121 4.381 2.121h56.738l4.074-1.972 4.074-1.973 2.664-4.108 2.663-4.107.67-7.17.669-7.17-.349-21.5-.349-21.5-1.648-3-1.647-3-2.359-2.202-2.358-2.203-3.705-1.547-3.704-1.548-27.782.022-27.782.022zm192.835-.779-3.243.937-3.454 3.454-3.455 3.454-1.046 3.769-1.047 3.769v49l1.033 3.719 1.033 3.719 2.67 3.173 2.67 3.174 4.042 1.835 4.041 1.836 27.29.022 27.29.022 3.71-1.894 3.71-1.893 1.712-1.893 1.712-1.893 1.538-3.681 1.538-3.682-.022-26.782-.022-26.782-1.837-4-1.837-4-1.927-1.712-1.928-1.712-3.681-1.538-3.682-1.538-26.782.09-26.782.09zm-360.252 21.447-16.496 9.528-.754.754-.755.755 7.33 11.95 7.329 11.949 3.74 5.81 3.741 5.81.688-.31.689-.31 17.221-9.795 17.221-9.794-4.831-7.706-4.831-7.705-6.632-10.25-6.633-10.25-.265.018-.266.019zm179.683-.917-.687.686V907h42.041l-.27-20.25-.271-20.25-20.063-.27-20.063-.27zM169 887.021v20.02l20.25-.27 20.25-.271.271-19.75.271-19.75H169zM725 887v20h41v-40h-41z"/>
</svg>
